<svg width="200" height="200" viewBox="0 0 200 200" fill="none" xmlns="http://www.w3.org/2000/svg">
<path d="M199.662 91.6986H140.894C136.973 72.78 120.143 58.5585 99.977 58.5585C79.8114 58.5585 62.9841 72.78 59.0595 91.6986H0.291992C4.60383 40.6527 47.5858 0.562012 99.977 0.562012C152.368 0.562012 195.353 40.6527 199.662 91.6986Z" fill="#F5F5F5"/>
<mask id="mask0_28509_629" style="mask-type:luminance" maskUnits="userSpaceOnUse" x="0" y="0" width="200" height="93">
<path d="M0 0H200V92.4425H0V0Z" fill="white"/>
</mask>
<g mask="url(#mask0_28509_629)">
<path d="M199.94 91.9539H140.687L140.646 91.7503C136.689 72.6634 119.584 58.8111 99.9771 58.8111C80.3706 58.8111 63.2678 72.6634 59.3078 91.7503L59.2669 91.9539H0.0166016L0.0384198 91.677C2.1357 66.8287 13.4648 43.7887 31.9313 26.8005C33.0768 25.7498 34.2468 24.7235 35.4386 23.7243C36.6304 22.7279 37.8468 21.7559 39.085 20.8165C40.3232 19.8744 41.5832 18.9621 42.865 18.077C44.1441 17.1946 45.445 16.3421 46.7677 15.5167C48.0877 14.694 49.4268 13.9039 50.785 13.141C52.1432 12.3808 53.5178 11.6531 54.9114 10.9554C56.3023 10.2576 57.7096 9.59512 59.1332 8.96251C60.5569 8.3299 61.9942 7.73259 63.4451 7.16785C64.896 6.60312 66.3605 6.07097 67.836 5.57411C69.3115 5.07725 70.8006 4.61298 72.2978 4.18671C73.7951 3.75773 75.3006 3.36405 76.817 3.00566C78.3333 2.64727 79.8579 2.32418 81.3906 2.0391C82.9206 1.7513 84.4588 1.4988 85.9997 1.28159C87.5434 1.0671 89.0925 0.885194 90.6416 0.741295C92.1934 0.597397 93.7479 0.488794 95.3052 0.415487C96.8625 0.344896 98.4198 0.306885 99.9771 0.306885C101.537 0.306885 103.094 0.344896 104.649 0.415487C106.206 0.488794 107.761 0.597397 109.313 0.741295C110.864 0.885194 112.411 1.0671 113.954 1.28159C115.498 1.4988 117.034 1.7513 118.566 2.0391C120.096 2.32418 121.621 2.64727 123.137 3.00566C124.654 3.36405 126.159 3.75773 127.659 4.18671C129.156 4.61298 130.643 5.07725 132.118 5.57411C133.594 6.07097 135.058 6.60312 136.509 7.16785C137.96 7.73259 139.397 8.3299 140.821 8.96251C142.245 9.59512 143.652 10.2576 145.045 10.9554C146.436 11.6531 147.811 12.3808 149.169 13.141C150.527 13.9039 151.866 14.694 153.189 15.5167C154.509 16.3421 155.81 17.1946 157.092 18.077C158.371 18.9621 159.631 19.8744 160.869 20.8165C162.107 21.7559 163.324 22.7279 164.516 23.7243C165.71 24.7235 166.877 25.7498 168.023 26.8005C186.492 43.7887 197.818 66.8287 199.916 91.677L199.94 91.9539ZM141.102 91.4462H199.384C194.949 40.6012 151.337 0.814602 99.9771 0.814602C48.6168 0.814602 5.00481 40.6012 0.57024 91.4462H58.8523C59.1005 90.2841 59.3978 89.1357 59.7441 87.9981C60.0932 86.8632 60.486 85.7418 60.9278 84.6395C61.3723 83.5372 61.8605 82.4539 62.3951 81.395C62.9296 80.3334 63.5105 79.2963 64.1323 78.2836C64.7569 77.2708 65.4224 76.2853 66.1287 75.3296C66.8378 74.3739 67.5851 73.4507 68.3706 72.5575C69.1587 71.6642 69.9824 70.8063 70.8415 69.9836C71.7033 69.1609 72.5951 68.3763 73.5224 67.6296C74.4497 66.883 75.4069 66.1744 76.3942 65.5092C77.3815 64.844 78.396 64.2195 79.4379 63.6412C80.4797 63.0602 81.5433 62.5253 82.6288 62.0366C83.717 61.5452 84.8215 61.1026 85.9452 60.7062C87.0715 60.3098 88.2088 59.9623 89.3652 59.6609C90.5188 59.3623 91.6834 59.1125 92.8588 58.9116C94.0343 58.7107 95.2179 58.5586 96.4043 58.4581C97.5934 58.3577 98.7852 58.3061 99.9771 58.3061C101.172 58.3061 102.361 58.3577 103.55 58.4581C104.739 58.5586 105.92 58.7107 107.095 58.9116C108.271 59.1125 109.435 59.3623 110.592 59.6609C111.745 59.9623 112.885 60.3098 114.009 60.7062C115.133 61.1026 116.24 61.5452 117.325 62.0366C118.414 62.5253 119.477 63.0602 120.516 63.6412C121.558 64.2195 122.573 64.844 123.56 65.5092C124.547 66.1744 125.504 66.883 126.432 67.6296C127.359 68.3763 128.254 69.1609 129.113 69.9836C129.972 70.8063 130.795 71.6642 131.584 72.5575C132.369 73.4507 133.116 74.3739 133.825 75.3296C134.532 76.2853 135.197 77.2708 135.822 78.2836C136.446 79.2963 137.025 80.3334 137.559 81.395C138.094 82.4539 138.585 83.5372 139.026 84.6395C139.468 85.7418 139.864 86.8632 140.21 87.9981C140.556 89.1357 140.854 90.2841 141.102 91.4462Z" fill="#F5F5F5"/>
</g>
<mask id="mask1_28509_629" style="mask-type:luminance" maskUnits="userSpaceOnUse" x="0" y="109" width="200" height="91">
<path d="M0 109.819H199.681V200H0V109.819Z" fill="white"/>
</mask>
<g mask="url(#mask1_28509_629)">
<path d="M199.503 110.3C194.398 160.537 151.787 199.745 99.9765 199.745C48.1663 199.745 5.55518 160.537 0.449707 110.3H59.4491C63.9955 128.369 80.4164 141.748 99.9765 141.748C119.537 141.748 135.958 128.369 140.507 110.3H199.503Z" fill="#F5F5F5"/>
</g>
<mask id="mask2_28509_629" style="mask-type:luminance" maskUnits="userSpaceOnUse" x="0" y="109" width="200" height="91">
<path d="M0 109.819H200V200H0V109.819Z" fill="white"/>
</mask>
<g mask="url(#mask2_28509_629)">
<path d="M99.9777 200C98.4422 200 96.9095 199.965 95.3767 199.894C93.844 199.823 92.3113 199.718 90.784 199.579C89.2567 199.438 87.7321 199.264 86.2103 199.052C84.6912 198.843 83.1776 198.599 81.6667 198.319C80.1585 198.042 78.6557 197.727 77.1612 197.38C75.6666 197.032 74.183 196.652 72.7048 196.237C71.2293 195.821 69.7621 195.371 68.3057 194.89C66.8493 194.407 65.4039 193.891 63.972 193.343C62.5402 192.794 61.1193 192.213 59.7147 191.6C58.3102 190.986 56.9193 190.342 55.542 189.664C54.1674 188.988 52.8065 188.279 51.4647 187.541C50.1202 186.802 48.7947 186.031 47.4883 185.233C46.1792 184.432 44.8892 183.604 43.621 182.746C42.3501 181.888 41.101 181 39.8737 180.085C38.6437 179.17 37.4383 178.225 36.2519 177.256C35.0683 176.284 33.9064 175.287 32.7664 174.264C31.6264 173.24 30.511 172.19 29.4201 171.114C28.3291 170.039 27.2655 168.942 26.2237 167.818C25.1846 166.694 24.17 165.549 23.1828 164.378C22.1955 163.208 21.2355 162.016 20.3027 160.803C19.3727 159.589 18.4673 158.354 17.5918 157.099C16.7164 155.845 15.8709 154.571 15.0554 153.276C14.2373 151.984 13.4518 150.673 12.6936 149.342C11.9382 148.012 11.2127 146.665 10.52 145.302C9.82451 143.942 9.16178 142.563 8.53178 141.17C7.90178 139.777 7.3045 138.371 6.73722 136.951C6.17268 135.531 5.63813 134.097 5.13904 132.653C4.63994 131.208 4.17358 129.753 3.74267 128.287C3.30903 126.821 2.91084 125.347 2.54539 123.861C2.17993 122.376 1.84993 120.886 1.55538 119.387C1.25811 117.888 0.999017 116.381 0.772652 114.872C0.546287 113.36 0.355377 111.845 0.197195 110.324L0.169922 110.044H59.6466L59.6956 110.237C59.9766 111.345 60.3011 112.436 60.672 113.517C61.0429 114.598 61.4575 115.662 61.9184 116.707C62.3766 117.753 62.8784 118.779 63.4238 119.783C63.9666 120.788 64.5529 121.768 65.1802 122.724C65.8048 123.679 66.4702 124.608 67.1739 125.509C67.8775 126.411 68.6166 127.282 69.3912 128.124C70.1684 128.963 70.9784 129.769 71.8212 130.543C72.6639 131.317 73.5366 132.055 74.4421 132.759C75.3448 133.459 76.2775 134.122 77.2375 134.749C78.1976 135.373 79.1794 135.957 80.1885 136.5C81.1976 137.043 82.2258 137.545 83.2758 138.004C84.3258 138.463 85.3921 138.878 86.4776 139.25C87.5603 139.62 88.6594 139.945 89.7694 140.228C90.8822 140.507 92.0031 140.741 93.1349 140.931C94.264 141.118 95.4013 141.26 96.544 141.355C97.6867 141.447 98.8322 141.496 99.9777 141.496C101.126 141.496 102.269 141.447 103.411 141.355C104.554 141.26 105.691 141.118 106.823 140.931C107.952 140.741 109.073 140.507 110.186 140.228C111.299 139.945 112.395 139.62 113.48 139.25C114.563 138.878 115.632 138.463 116.68 138.004C117.73 137.545 118.76 137.043 119.767 136.5C120.776 135.957 121.76 135.373 122.718 134.749C123.678 134.122 124.61 133.459 125.516 132.759C126.419 132.055 127.291 131.317 128.137 130.543C128.98 129.769 129.787 128.963 130.564 128.124C131.339 127.282 132.081 126.411 132.781 125.509C133.485 124.608 134.151 123.679 134.778 122.724C135.402 121.768 135.989 120.788 136.531 119.783C137.077 118.779 137.579 117.753 138.04 116.707C138.498 115.662 138.912 114.598 139.283 113.517C139.654 112.436 139.979 111.345 140.26 110.237L140.309 110.044H199.788L199.758 110.324C199.603 111.845 199.412 113.36 199.185 114.872C198.959 116.381 198.697 117.888 198.4 119.387C198.105 120.886 197.775 122.376 197.41 123.861C197.047 125.347 196.646 126.821 196.215 128.287C195.782 129.753 195.315 131.208 194.816 132.653C194.317 134.097 193.783 135.531 193.218 136.951C192.654 138.371 192.054 139.777 191.424 141.17C190.794 142.563 190.131 143.942 189.435 145.302C188.743 146.665 188.017 148.012 187.262 149.342C186.506 150.673 185.718 151.984 184.903 153.276C184.084 154.571 183.239 155.845 182.363 157.099C181.488 158.354 180.585 159.589 179.653 160.803C178.72 162.016 177.76 163.208 176.773 164.378C175.785 165.549 174.771 166.694 173.732 167.818C172.693 168.942 171.626 170.039 170.535 171.114C169.444 172.19 168.329 173.24 167.189 174.264C166.052 175.287 164.89 176.284 163.703 177.256C162.517 178.225 161.312 179.17 160.082 180.085C158.854 181 157.605 181.888 156.334 182.746C155.066 183.604 153.776 184.432 152.47 185.233C151.161 186.031 149.835 186.802 148.493 187.541C147.149 188.279 145.791 188.988 144.413 189.664C143.039 190.342 141.648 190.986 140.241 191.6C138.836 192.213 137.415 192.794 135.983 193.343C134.551 193.891 133.106 194.407 131.65 194.89C130.196 195.371 128.729 195.821 127.251 196.237C125.775 196.652 124.289 197.032 122.794 197.38C121.3 197.727 119.797 198.042 118.289 198.319C116.78 198.599 115.264 198.843 113.745 199.052C112.226 199.264 110.701 199.438 109.171 199.579C107.644 199.718 106.114 199.823 104.579 199.894C103.046 199.965 101.513 200 99.9777 200ZM0.73447 110.552C6.03086 161.275 48.6447 199.492 99.9777 199.492C151.311 199.492 193.927 161.275 199.224 110.552H140.704C140.134 112.757 139.387 114.899 138.465 116.981C137.541 119.067 136.458 121.062 135.209 122.968C133.962 124.877 132.569 126.671 131.028 128.355C129.49 130.038 127.823 131.586 126.031 132.998C125.112 133.72 124.163 134.404 123.187 135.047C122.21 135.691 121.207 136.294 120.181 136.853C119.153 137.415 118.103 137.931 117.034 138.403C115.962 138.876 114.874 139.305 113.767 139.688C112.66 140.07 111.541 140.404 110.404 140.695C109.27 140.983 108.127 141.224 106.97 141.42C105.817 141.612 104.655 141.759 103.488 141.857C102.32 141.955 101.15 142.003 99.9777 142.003C98.8076 142.003 97.6376 141.955 96.4704 141.857C95.3031 141.759 94.1413 141.612 92.9876 141.42C91.8313 141.224 90.6885 140.983 89.5512 140.695C88.4167 140.404 87.2958 140.07 86.1912 139.688C85.0839 139.305 83.9958 138.876 82.9239 138.403C81.8548 137.931 80.8048 137.415 79.7766 136.853C78.7512 136.294 77.7476 135.691 76.7712 135.047C75.7948 134.404 74.8457 133.72 73.9266 132.998C72.1348 131.586 70.4684 130.038 68.9275 128.355C67.3893 126.671 65.9957 124.877 64.7466 122.968C63.5002 121.062 62.4148 119.067 61.4929 116.981C60.5711 114.899 59.8238 112.757 59.2511 110.552H0.73447Z" fill="#F5F5F5"/>
</g>
<path d="M122.736 100.153C122.736 100.618 122.722 101.082 122.692 101.544C122.662 102.008 122.621 102.469 122.561 102.928C122.504 103.39 122.433 103.849 122.348 104.305C122.261 104.761 122.16 105.212 122.048 105.662C121.934 106.113 121.806 106.558 121.664 107.001C121.525 107.443 121.369 107.88 121.2 108.312C121.031 108.744 120.851 109.173 120.655 109.594C120.461 110.015 120.254 110.43 120.033 110.84C119.812 111.247 119.58 111.649 119.335 112.045C119.089 112.439 118.833 112.825 118.563 113.205C118.293 113.582 118.015 113.954 117.723 114.315C117.428 114.676 117.126 115.029 116.812 115.371C116.498 115.716 116.177 116.047 115.841 116.37C115.506 116.694 115.162 117.009 114.81 117.31C114.456 117.611 114.093 117.902 113.722 118.184C113.351 118.464 112.969 118.733 112.582 118.988C112.195 119.246 111.799 119.49 111.396 119.721C110.992 119.954 110.583 120.174 110.166 120.383C109.748 120.59 109.326 120.785 108.897 120.964C108.467 121.146 108.033 121.315 107.594 121.469C107.155 121.627 106.71 121.768 106.263 121.896C105.816 122.023 105.363 122.137 104.907 122.238C104.455 122.338 103.997 122.422 103.536 122.496C103.075 122.569 102.614 122.626 102.15 122.669C101.687 122.713 101.22 122.743 100.754 122.759C100.29 122.775 99.8238 122.775 99.3574 122.762C98.891 122.748 98.4274 122.721 97.961 122.68C97.4974 122.64 97.0365 122.583 96.5756 122.515C96.1147 122.444 95.6565 122.36 95.201 122.262C94.7456 122.164 94.2928 122.053 93.8428 121.928C93.3956 121.801 92.951 121.662 92.5119 121.51C92.0701 121.358 91.6365 121.19 91.2056 121.011C90.7774 120.831 90.3519 120.639 89.9346 120.435C89.5174 120.229 89.1055 120.011 88.7019 119.781C88.2955 119.55 87.9001 119.308 87.5101 119.053C87.1201 118.798 86.7383 118.532 86.3674 118.255C85.9937 117.975 85.6283 117.687 85.2737 117.386C84.9192 117.085 84.5728 116.775 84.2373 116.452C83.9019 116.132 83.5746 115.8 83.261 115.458C82.9446 115.116 82.6392 114.766 82.3473 114.408C82.0528 114.046 81.7692 113.677 81.4991 113.3C81.2264 112.922 80.9673 112.537 80.7219 112.143C80.4737 111.749 80.2391 111.35 80.0155 110.943C79.7946 110.536 79.5846 110.12 79.3882 109.7C79.1919 109.279 79.0064 108.855 78.8373 108.424C78.6655 107.989 78.5073 107.555 78.3655 107.112C78.221 106.672 78.09 106.227 77.9755 105.776C77.8582 105.328 77.7573 104.875 77.6673 104.419C77.58 103.963 77.5064 103.507 77.4464 103.045C77.3864 102.586 77.34 102.125 77.31 101.66C77.2773 101.199 77.2609 100.734 77.2582 100.27C77.2555 99.8059 77.2664 99.3443 77.2909 98.8801C77.3182 98.4185 77.3591 97.9542 77.4109 97.4954C77.4655 97.0338 77.5337 96.575 77.6182 96.1188C77.7 95.6627 77.7982 95.2093 77.9073 94.7586C78.0191 94.3079 78.1419 93.8599 78.281 93.4173C78.42 92.9748 78.57 92.5349 78.7364 92.1005C78.9028 91.6688 79.08 91.2399 79.271 90.8163C79.4646 90.3928 79.6691 89.9774 79.8873 89.5674C80.1028 89.1574 80.3346 88.7529 80.5773 88.3565C80.8173 87.9601 81.0737 87.5718 81.3382 87.1917C81.6055 86.8116 81.8837 86.4396 82.1728 86.0758C82.4619 85.712 82.7619 85.3563 83.0755 85.0115C83.3864 84.6667 83.7083 84.3327 84.0383 84.0069C84.371 83.6811 84.7119 83.3662 85.0637 83.0594C85.4155 82.7553 85.7755 82.4621 86.1464 82.1797C86.5146 81.8973 86.8937 81.6258 87.281 81.3679C87.6655 81.1072 88.061 80.8602 88.4619 80.624C88.8628 80.3877 89.2719 80.1651 89.6865 79.956C90.1037 79.7443 90.5237 79.5488 90.9519 79.3642C91.3801 79.1795 91.8137 79.0085 92.2501 78.851C92.6892 78.6908 93.131 78.5469 93.5783 78.4166C94.0256 78.2863 94.4756 78.1695 94.931 78.0636C95.3838 77.9605 95.8419 77.8709 96.3029 77.7976C96.761 77.7215 97.2247 77.6591 97.6883 77.6129C98.152 77.5668 98.6156 77.5342 99.082 77.5152C99.5456 77.4962 100.012 77.4908 100.478 77.5016C100.945 77.5098 101.408 77.5342 101.875 77.5722C102.338 77.6102 102.802 77.6645 103.263 77.7297C103.724 77.7976 104.182 77.879 104.637 77.9713C105.096 78.0664 105.548 78.175 105.998 78.2971C106.446 78.422 106.893 78.5578 107.332 78.7071C107.774 78.8564 108.21 79.0194 108.641 79.1958C109.072 79.3723 109.497 79.5624 109.917 79.7633C110.337 79.9669 110.749 80.1814 111.156 80.4095C111.562 80.6375 111.96 80.8765 112.35 81.129C112.743 81.3815 113.125 81.6448 113.501 81.919C113.875 82.196 114.243 82.4811 114.597 82.7797C114.955 83.0784 115.304 83.3852 115.642 83.7056C115.98 84.0259 116.307 84.3545 116.627 84.6938C116.943 85.0332 117.251 85.3807 117.548 85.7391C117.843 86.0975 118.129 86.4641 118.402 86.8387C118.675 87.2161 118.937 87.599 119.188 87.9899C119.438 88.3809 119.676 88.78 119.902 89.1873C120.126 89.5918 120.338 90.0045 120.538 90.4253C120.739 90.8435 120.925 91.2697 121.099 91.6987C122.196 94.4111 122.741 97.2293 122.736 100.153Z" fill="#F5F5F5"/>
<path d="M99.9772 123.066C99.5217 123.063 99.0635 123.05 98.6081 123.022C98.1499 122.995 97.6944 122.955 97.2417 122.9C96.789 122.846 96.3362 122.778 95.8862 122.697C95.4362 122.618 94.989 122.523 94.5444 122.414C94.0999 122.308 93.6608 122.186 93.2244 122.053C92.7853 121.917 92.3544 121.771 91.9262 121.613C91.498 121.453 91.0753 121.282 90.6553 121.097C90.238 120.913 89.8262 120.715 89.4198 120.506C89.0135 120.296 88.6153 120.077 88.2226 119.843C87.8298 119.61 87.4426 119.365 87.0662 119.11C86.6871 118.855 86.3162 118.589 85.9535 118.312C85.5907 118.032 85.2389 117.744 84.8925 117.446C84.5489 117.147 84.2135 116.84 83.8862 116.52C83.5589 116.202 83.2425 115.874 82.9344 115.537C82.6289 115.2 82.3316 114.853 82.0453 114.5C81.7589 114.144 81.4834 113.78 81.2189 113.408C80.9543 113.039 80.7034 112.659 80.4607 112.273C80.218 111.885 79.9889 111.494 79.7707 111.092C79.5525 110.693 79.3452 110.289 79.1516 109.876C78.958 109.463 78.778 109.045 78.6089 108.622C78.4398 108.201 78.2816 107.772 78.1398 107.34C77.9952 106.908 77.8671 106.471 77.7498 106.032C77.6325 105.592 77.5289 105.149 77.4361 104.704C77.3461 104.256 77.2698 103.808 77.2043 103.357C77.1416 102.906 77.0925 102.453 77.0543 102C77.0189 101.546 76.9943 101.093 76.9861 100.637C76.9752 100.183 76.9807 99.7271 76.9971 99.2737C77.0161 98.8176 77.0461 98.3642 77.0925 97.9108C77.1361 97.4574 77.1961 97.0067 77.2671 96.5587C77.338 96.108 77.4252 95.66 77.5234 95.2174C77.6216 94.7722 77.7334 94.3323 77.8589 93.8925C77.9843 93.4553 78.1207 93.0209 78.2734 92.592C78.4234 92.163 78.5871 91.7394 78.7643 91.3186C78.9416 90.8978 79.1298 90.4851 79.3316 90.0751C79.5334 89.6678 79.7462 89.266 79.9725 88.8696C80.1962 88.4732 80.4334 88.0849 80.6816 87.7021C80.9325 87.3193 81.1916 86.9446 81.4616 86.5781C81.7343 86.2116 82.0153 85.8559 82.3071 85.5056C82.6016 85.1554 82.9044 84.8133 83.2153 84.4821C83.5289 84.1508 83.8507 83.8277 84.1835 83.5155C84.5162 83.2033 84.8571 82.9019 85.2089 82.6087C85.558 82.3154 85.918 82.0358 86.2835 81.7643C86.6516 81.4928 87.028 81.2321 87.4098 80.9823C87.7916 80.7353 88.1817 80.4963 88.5798 80.271C88.978 80.0456 89.3789 79.8339 89.7907 79.6302C90.1998 79.4293 90.6144 79.2393 91.0371 79.0628C91.4571 78.8863 91.8826 78.7207 92.3162 78.5686C92.7471 78.4166 93.1808 78.2781 93.6199 78.1532C94.059 78.0256 94.5035 77.9143 94.948 77.8139C95.3953 77.7134 95.8426 77.6292 96.2953 77.5559C96.7453 77.4826 97.1981 77.4229 97.6535 77.3767C98.109 77.3306 98.5644 77.298 99.0199 77.279C99.4781 77.26 99.9363 77.2546 100.392 77.2627C100.85 77.2708 101.305 77.2926 101.761 77.3279C102.216 77.3632 102.672 77.4093 103.124 77.4718C103.577 77.5342 104.027 77.6102 104.477 77.6998C104.924 77.7867 105.372 77.8899 105.814 78.0039C106.255 78.1207 106.694 78.2483 107.128 78.3895C107.562 78.5306 107.993 78.6854 108.418 78.851C108.844 79.0193 109.264 79.1985 109.678 79.3886C110.093 79.5814 110.502 79.785 110.903 80.0022C111.306 80.2167 111.702 80.4448 112.092 80.6837C112.479 80.9253 112.861 81.1751 113.234 81.4358C113.608 81.6991 113.974 81.9706 114.331 82.2557C114.688 82.5408 115.037 82.834 115.378 83.1381C115.716 83.4422 116.046 83.7571 116.368 84.0802C116.69 84.406 117.001 84.7373 117.301 85.0821C117.604 85.4242 117.893 85.7744 118.174 86.1355C118.452 86.4939 118.722 86.8632 118.981 87.2378C119.237 87.6125 119.485 87.9954 119.72 88.3863C119.955 88.7773 120.178 89.1737 120.388 89.5782C120.601 89.9828 120.8 90.39 120.985 90.8054C121.174 91.2208 121.348 91.6417 121.509 92.0679C121.67 92.4942 121.82 92.9232 121.954 93.3603C122.09 93.7947 122.213 94.2319 122.322 94.6744C122.431 95.117 122.529 95.5595 122.611 96.0075C122.695 96.4555 122.764 96.9062 122.821 97.3569C122.875 97.8076 122.919 98.261 122.946 98.7171C122.976 99.1706 122.99 99.624 122.993 100.08C122.995 100.536 122.982 100.99 122.957 101.443C122.93 101.899 122.892 102.353 122.84 102.803C122.785 103.257 122.72 103.707 122.641 104.155C122.562 104.603 122.466 105.049 122.36 105.491C122.254 105.934 122.136 106.374 122.003 106.808C121.869 107.242 121.725 107.674 121.566 108.103C121.408 108.529 121.236 108.95 121.054 109.368C120.868 109.784 120.672 110.196 120.465 110.601C120.255 111.006 120.036 111.405 119.805 111.796C119.57 112.189 119.327 112.572 119.071 112.95C118.817 113.327 118.55 113.699 118.272 114.06C117.996 114.421 117.707 114.774 117.41 115.119C117.11 115.464 116.802 115.8 116.483 116.126C116.164 116.452 115.836 116.77 115.498 117.076C115.16 117.383 114.814 117.679 114.459 117.964C114.104 118.252 113.739 118.526 113.368 118.792C112.997 119.056 112.615 119.311 112.228 119.553C110.395 120.701 108.437 121.575 106.354 122.173C104.27 122.77 102.145 123.066 99.9772 123.066ZM99.9772 77.7487C99.1808 77.7514 98.3872 77.7921 97.5962 77.8763C96.8053 77.9632 96.0199 78.0881 95.2426 78.2564C94.4626 78.422 93.6962 78.6311 92.9408 78.8809C92.1853 79.1279 91.4435 79.4157 90.7208 79.7443C89.9953 80.0701 89.2889 80.4339 88.6017 80.8357C87.9171 81.2376 87.2544 81.6747 86.6135 82.1471C85.9725 82.6195 85.3616 83.1218 84.7753 83.6594C84.1889 84.1943 83.6325 84.7617 83.1089 85.3563C82.5825 85.9509 82.0889 86.5727 81.6307 87.2216C81.1725 87.8677 80.7471 88.5384 80.3598 89.2307C79.9725 89.9203 79.6234 90.6317 79.3098 91.362C78.9989 92.0897 78.7262 92.8336 78.4943 93.5911C78.2598 94.3486 78.0689 95.117 77.9189 95.8962C77.7689 96.6727 77.6598 97.4574 77.5916 98.2474C77.5234 99.0375 77.4989 99.8276 77.518 100.62C77.5343 101.413 77.5943 102.203 77.6952 102.988C77.7961 103.775 77.9407 104.552 78.1234 105.323C78.3089 106.094 78.5325 106.854 78.7998 107.601C79.0643 108.347 79.3698 109.078 79.7134 109.795C80.0571 110.509 80.4362 111.204 80.8534 111.877C81.2734 112.553 81.7234 113.202 82.2116 113.829C82.6998 114.456 83.218 115.056 83.7689 115.629C84.3198 116.199 84.9007 116.742 85.5089 117.253C86.1171 117.763 86.7526 118.241 87.4098 118.684C88.0698 119.126 88.7517 119.534 89.4553 119.906C90.1589 120.277 90.8789 120.611 91.618 120.907C92.3571 121.201 93.1099 121.459 93.8762 121.673C94.6399 121.89 95.4171 122.064 96.1999 122.197C96.9853 122.33 97.7762 122.422 98.5699 122.474C99.3635 122.523 100.16 122.531 100.954 122.498C101.75 122.466 102.541 122.39 103.329 122.273C104.114 122.154 104.894 121.996 105.664 121.795C106.435 121.597 107.194 121.355 107.938 121.076C108.683 120.796 109.411 120.478 110.12 120.123C110.832 119.764 111.522 119.371 112.19 118.942C112.858 118.513 113.504 118.048 114.124 117.552C114.743 117.052 115.335 116.523 115.896 115.963C116.458 115.401 116.99 114.815 117.492 114.198C117.991 113.582 118.457 112.939 118.888 112.273C119.319 111.608 119.715 110.921 120.075 110.213C120.432 109.507 120.751 108.782 121.035 108.041C121.315 107.299 121.555 106.545 121.757 105.779C121.956 105.011 122.117 104.237 122.235 103.452C122.352 102.668 122.428 101.88 122.461 101.087C122.496 100.297 122.488 99.5045 122.436 98.7144C122.387 97.9243 122.295 97.137 122.161 96.3577C122.025 95.5758 121.85 94.8047 121.635 94.0418C121.416 93.2789 121.16 92.5295 120.863 91.7937C120.448 90.762 119.96 89.7629 119.395 88.8044C118.834 87.8433 118.201 86.931 117.5 86.0649C116.799 85.1988 116.035 84.387 115.215 83.635C114.391 82.8829 113.518 82.196 112.591 81.5715C111.666 80.9498 110.698 80.3986 109.689 79.9207C108.68 79.4429 107.641 79.0411 106.574 78.718C105.505 78.3922 104.417 78.1505 103.313 77.9876C102.205 77.8247 101.095 77.746 99.9772 77.7487Z" fill="#F5F5F5"/>
</svg>
